<svg xmlns="http://www.w3.org/2000/svg" viewBox="0 0 800 900" width="800" height="900">
  <rect width="800" height="900" fill="#e8e8e8"/>
  <ellipse cx="400" cy="640" rx="250" ry="85" fill="#dadada"/>
  <path d="M150 570 C 170 470 250 440 310 450 L 365 455 C 400 420 470 420 520 455 L 620 485 C 655 505 645 560 610 580 L 150 575 Z" fill="#2a2a2a"/>
  <path d="M310 450 L 330 570" stroke="#101010" stroke-width="12"/>
  <path d="M365 455 L 380 570" stroke="#e63946" stroke-width="14"/>
  <line x1="640" y1="420" x2="575" y2="420" stroke="#e63946" stroke-width="12" stroke-linecap="round"/>
  <line x1="660" y1="452" x2="585" y2="452" stroke="#2a2a2a" stroke-width="12" stroke-linecap="round"/>
  <line x1="648" y1="484" x2="590" y2="484" stroke="#e63946" stroke-width="12" stroke-linecap="round"/>
  <rect x="0" y="120" width="800" height="120" fill="#000000" fill-opacity="0.06"/>
  <text x="400" y="185" font-family="Arial" font-size="40" font-weight="900" letter-spacing="4" fill="#ffffff" text-anchor="middle">SPORT</text>
</svg>